<?xml version="1.0" encoding="UTF-8" standalone="no"?>
<!-- Created with Inkscape (http://www.inkscape.org/) -->

<svg
   xmlns:dc="http://purl.org/dc/elements/1.1/"
   xmlns:cc="http://creativecommons.org/ns#"
   xmlns:rdf="http://www.w3.org/1999/02/22-rdf-syntax-ns#"
   xmlns:svg="http://www.w3.org/2000/svg"
   xmlns="http://www.w3.org/2000/svg"
   xmlns:sodipodi="http://sodipodi.sourceforge.net/DTD/sodipodi-0.dtd"
   xmlns:inkscape="http://www.inkscape.org/namespaces/inkscape"
   id="svg2"
   version="1.1"
   inkscape:version="0.48.3.1 r9886"
   width="130"
   height="95"
   xml:space="preserve"
   sodipodi:docname="redmine_logo.svg"><metadata
     id="metadata8"><rdf:RDF><cc:Work
         rdf:about=""><dc:format>image/svg+xml</dc:format><dc:type
           rdf:resource="http://purl.org/dc/dcmitype/StillImage" /><dc:title /></cc:Work></rdf:RDF></metadata><defs
     id="defs6"><clipPath
       clipPathUnits="userSpaceOnUse"
       id="clipPath18"><path
         d="m 0,0 4145.66,0 0,955 L 0,955 0,0 z"
         id="path20"
         inkscape:connector-curvature="0" /></clipPath></defs><sodipodi:namedview
     pagecolor="#ffffff"
     bordercolor="#666666"
     borderopacity="1"
     objecttolerance="10"
     gridtolerance="10"
     guidetolerance="10"
     inkscape:pageopacity="0"
     inkscape:pageshadow="2"
     inkscape:window-width="1920"
     inkscape:window-height="1025"
     id="namedview4"
     showgrid="true"
     inkscape:zoom="5.2945703"
     inkscape:cx="9.6100859"
     inkscape:cy="44.968771"
     inkscape:window-x="-2"
     inkscape:window-y="-3"
     inkscape:window-maximized="1"
     inkscape:current-layer="g10"
     inkscape:snap-grids="false"><inkscape:grid
       empspacing="5"
       visible="true"
       enabled="true"
       snapvisiblegridlinesonly="true"
       type="xygrid"
       id="grid2994" /></sodipodi:namedview><g
     id="g10"
     inkscape:groupmode="layer"
     inkscape:label="ink_ext_XXXXXX"
     transform="matrix(1.25,0,0,-1.25,0,95)"><g
       id="g12"
       transform="matrix(0.09918988,0,0,0.09918988,5.6570016,-28.49924)"><g
         id="g14"><g
           id="g16"
           clip-path="url(#clipPath18)"><path
             d="M 276.648,896.871 366.293,792.48 c 3.844,-4.964 -1.25,-8.636 -1.25,-8.636 -35.922,-19.375 -61.914,-48.653 -84.148,-82.18 -4.415,-6.652 -9.176,-1.82 -9.176,-1.82 l -113.59,85.062 c 0,0 -4.883,2.871 -0.609,8.547 33.261,44.168 63.476,75.317 111.789,104.723 0,0 3.66,3.449 7.339,-1.305"
             style="fill:#d52c24;fill-opacity:1;fill-rule:nonzero;stroke:none"
             id="path22"
             inkscape:connector-curvature="0" /><path
             d="m 117.633,726.809 134.246,-64.895 c 6.379,-2.473 3.187,-8.281 3.187,-8.281 -18.546,-44.137 -29.847,-81.399 -38.566,-126.547 -1.461,-7.559 -6.59,-5.137 -6.59,-5.137 L 58.9062,587.516 c 0,0 -4.5273,1.695 -2.6367,7.511 6.7032,20.657 40.8594,103.118 54.5705,130.067 0,0 2.402,4.086 6.793,1.715"
             style="fill:#c82624;fill-opacity:1;fill-rule:nonzero;stroke:none"
             id="path24"
             inkscape:connector-curvature="0" /><path
             d="m 42.5195,518.344 c 30.7071,-9.457 159.5545,-39.133 159.5545,-39.133 7.723,-2.379 5.422,-8.172 5.422,-8.172 -8.891,-70 -6.961,-123.422 -6.961,-141.879 0,-8.183 -5.957,-6.98 -5.957,-6.98 -33.449,0 -188.03112,0 -188.03112,0 -8.17188,0 -6.378911,7.363 -6.378911,7.363 1.535151,23.316 8.257811,89.668 34.183631,184.793 0,0 1.289,6.129 8.1679,4.008"
             style="fill:#ac1f22;fill-opacity:1;fill-rule:nonzero;stroke:none"
             id="path26"
             inkscape:connector-curvature="0" /><path
             d="M 657.777,896.871 568.137,792.48 c -3.844,-4.964 1.25,-8.636 1.25,-8.636 35.922,-19.375 61.914,-48.653 84.148,-82.18 4.414,-6.652 9.176,-1.82 9.176,-1.82 l 113.59,85.062 c 0,0 4.883,2.871 0.609,8.547 -33.262,44.168 -63.476,75.317 -111.789,104.723 0,0 -3.66,3.449 -7.344,-1.305"
             style="fill:#d52c24;fill-opacity:1;fill-rule:nonzero;stroke:none"
             id="path28"
             inkscape:connector-curvature="0" /><path
             d="m 467.219,807.52 c 15.086,0 43.023,-1.442 56.211,-3.629 6.886,-1.141 8.59,3.41 8.59,3.41 l 56.425,117.914 c 0,0 3.778,4.437 -4.125,7.328 -42.117,15.41 -64.519,22.5 -117.101,22.5 -51.961,0 -74.992,-7.09 -117.114,-22.5 -7.898,-2.891 -4.125,-7.328 -4.125,-7.328 l 56.426,-117.914 c 0,0 1.703,-4.551 8.594,-3.41 13.184,2.187 41.125,3.629 56.219,3.629"
             style="fill:#df3d3c;fill-opacity:1;fill-rule:nonzero;stroke:none"
             id="path30"
             inkscape:connector-curvature="0" /><path
             d="M 816.797,726.809 682.551,661.914 c -6.379,-2.473 -3.192,-8.281 -3.192,-8.281 18.551,-44.137 29.852,-81.399 38.571,-126.547 1.461,-7.559 6.586,-5.137 6.586,-5.137 l 151.007,65.567 c 0,0 4.528,1.695 2.637,7.511 -6.707,20.657 -40.859,103.118 -54.57,130.067 0,0 -2.402,4.086 -6.793,1.715"
             style="fill:#c82624;fill-opacity:1;fill-rule:nonzero;stroke:none"
             id="path32"
             inkscape:connector-curvature="0" /><path
             d="m 891.91,518.344 c -30.711,-9.457 -159.555,-39.133 -159.555,-39.133 -7.722,-2.379 -5.421,-8.172 -5.421,-8.172 8.89,-70 6.957,-123.422 6.957,-141.879 0,-8.183 5.957,-6.98 5.957,-6.98 33.453,0 188.035,0 188.035,0 8.172,0 6.379,7.363 6.379,7.363 -1.535,23.316 -8.262,89.668 -34.184,184.793 0,0 -1.289,6.129 -8.168,4.008"
             style="fill:#ac1f22;fill-opacity:1;fill-rule:nonzero;stroke:none"
             id="path34"
             inkscape:connector-curvature="0" /></g></g></g></g></svg>